<?xml version="1.0" standalone="no"?>
<!DOCTYPE svg PUBLIC "-//W3C//DTD SVG 20010904//EN"
 "http://www.w3.org/TR/2001/REC-SVG-20010904/DTD/svg10.dtd">
<svg version="1.0" xmlns="http://www.w3.org/2000/svg"
 width="4096.000000pt" height="4096.000000pt" viewBox="0 0 4096.000000 4096.000000"
 preserveAspectRatio="xMidYMid meet">
<g transform="translate(0.000000,4096.000000) scale(0.100000,-0.100000)"
fill="#000000" stroke="none">
<path d="M5820 32400 l0 -990 990 0 990 0 0 -985 0 -985 985 0 985 0 0 -985 0
-985 985 0 985 0 0 -980 0 -980 980 0 980 0 0 -3935 0 -3935 2955 0 2955 0 0
3935 0 3935 985 0 985 0 0 980 0 980 980 0 980 0 0 985 0 985 985 0 985 0 0
985 0 985 985 0 985 0 0 990 0 990 -10830 0 -10830 0 0 -990z m15750 -1975 l0
-985 -980 0 -980 0 0 -980 0 -980 -985 0 -985 0 0 -2955 0 -2955 -980 0 -980
0 -2 1968 -3 1967 -982 3 -983 2 0 985 0 985 -985 0 -985 0 0 1965 0 1965
4915 0 4915 0 0 -985z"/>
<path d="M35350 26495 l0 -985 -985 0 -985 0 0 -985 0 -985 -985 0 -985 0 0
-985 0 -985 -985 0 -985 0 0 -980 0 -980 -980 0 -980 0 0 -985 0 -985 1965 0
1965 0 0 980 0 980 985 0 985 0 0 985 0 985 985 0 985 0 0 985 0 985 975 0
975 0 0 1970 0 1970 -975 0 -975 0 0 -985z"/>
<path d="M27480 26490 l0 -980 980 0 980 0 0 980 0 980 -980 0 -980 0 0 -980z"/>
<path d="M25510 24520 l0 -980 -980 0 -980 0 0 -1965 0 -1965 980 0 980 0 0
1965 0 1965 983 2 982 3 3 978 2 977 -985 0 -985 0 0 -980z"/>
<path d="M21580 18620 l0 -980 980 0 980 0 0 980 0 980 -980 0 -980 0 0 -980z"/>
<path d="M33380 16655 l0 -985 -985 0 -985 0 0 -985 0 -985 -985 0 -985 0 0
-980 0 -980 -980 0 -980 0 0 -985 0 -985 -985 0 -985 0 0 -985 0 -985 -985 0
-985 0 0 1965 0 1965 -980 0 -980 0 0 -1965 0 -1965 980 0 980 0 0 -985 0
-985 -985 0 -985 0 0 985 0 985 -980 0 -980 0 0 -985 0 -985 980 0 980 0 0
-975 0 -975 1970 0 1970 0 0 975 0 975 985 0 985 0 0 985 0 985 985 0 985 0 0
985 0 985 980 0 980 0 0 980 0 980 985 0 985 0 0 985 0 985 985 0 985 0 0 985
0 985 975 0 975 0 0 985 0 985 -1960 0 -1960 0 0 -985z"/>
<path d="M19610 15665 l0 -1965 1970 0 1970 0 0 -980 0 -980 980 0 980 0 0
980 0 980 985 0 985 0 0 985 0 985 -2955 0 -2955 0 0 980 0 980 -980 0 -980 0
0 -1965z"/>
</g>
</svg>
